<?xml version="1.0" encoding="UTF-8"?>
<svg xmlns="http://www.w3.org/2000/svg" viewBox="0 0 1000 1000" role="img" aria-label="JF Teams Stacked logo">
<title>JF Teams Stacked logo</title>
<path d="M677.771,136.115 L676.656,136.115 L675.542,135.000 L512.817,135.000 L509.474,137.229 L509.474,138.344 L508.359,139.458 L508.359,440.387 L510.588,443.731 L511.703,443.731 L512.817,444.845 L517.276,444.845 L518.390,443.731 L519.505,443.731 L525.077,438.158 L526.192,438.158 L530.650,433.700 L531.765,433.700 L537.337,428.127 L538.452,428.127 L542.910,423.669 L544.025,423.669 L556.285,412.523 L557.399,412.523 L561.858,408.065 L562.972,408.065 L568.545,402.492 L569.659,402.492 L574.118,398.034 L575.232,398.034 L581.920,391.347 L581.920,335.619 L583.034,334.505 L583.034,333.390 L586.378,330.046 L589.721,330.046 L590.836,328.932 L618.700,328.932 L619.814,330.046 L620.929,328.932 L622.043,330.046 L623.158,328.932 L624.272,330.046 L625.387,328.932 L627.616,328.932 L629.845,326.703 L629.845,321.130 L630.960,320.015 L629.845,318.901 L630.960,317.786 L629.845,316.672 L629.845,258.715 L627.616,256.486 L591.950,256.486 L590.836,255.372 L589.721,256.486 L588.607,255.372 L586.378,255.372 L583.034,252.028 L583.034,250.913 L581.920,249.799 L581.920,214.133 L583.034,213.019 L583.034,211.904 L585.263,209.675 L586.378,209.675 L587.492,208.560 L674.427,208.560 L675.542,207.446 L676.656,207.446 L678.885,205.217 L678.885,138.344 L677.771,137.229 Z M483.839,135.000 L323.344,135.000 L320.000,138.344 L320.000,205.217 L322.229,207.446 L323.344,207.446 L324.458,208.560 L409.164,208.560 L413.622,213.019 L413.622,423.669 L412.508,424.783 L412.508,425.898 L410.279,428.127 L409.164,428.127 L403.591,433.700 L402.477,433.700 L395.789,440.387 L394.675,440.387 L390.217,444.845 L389.102,444.845 L387.988,445.960 L384.644,445.960 L383.529,444.845 L382.415,444.845 L379.071,441.502 L379.071,415.867 L377.957,414.752 L377.957,408.065 L374.613,404.721 L323.344,404.721 L320.000,408.065 L320.000,588.622 L322.229,590.851 L323.344,590.851 L324.458,591.966 L327.802,591.966 L328.916,590.851 L330.031,590.851 L335.604,585.279 L336.718,585.279 L342.291,579.706 L343.406,579.706 L348.978,574.133 L350.093,574.133 L355.666,568.560 L356.780,568.560 L362.353,562.988 L363.467,562.988 L369.040,557.415 L370.155,557.415 L375.728,551.842 L376.842,551.842 L382.415,546.269 L383.529,546.269 L389.102,540.697 L390.217,540.697 L402.477,529.551 L403.591,529.551 L408.050,525.093 L409.164,525.093 L414.737,519.520 L415.851,519.520 L421.424,513.947 L422.539,513.947 L428.111,508.375 L429.226,508.375 L434.799,502.802 L435.913,502.802 L441.486,497.229 L442.601,497.229 L448.173,491.656 L449.288,491.656 L454.861,486.084 L455.975,486.084 L461.548,480.511 L462.663,480.511 L468.235,474.938 L469.350,474.938 L474.923,469.365 L476.037,469.365 L481.610,463.793 L482.724,463.793 L487.183,459.334 L487.183,138.344 Z" fill="#C80913" fill-rule="evenodd"/>
<path d="M569.712,721.468 L569.712,799.986 L584.388,799.986 L584.388,740.547 L584.755,740.180 L585.122,740.547 L585.122,741.647 L585.489,742.014 L585.489,743.115 L585.856,743.482 L585.856,744.583 L586.223,744.950 L586.223,746.050 L586.590,746.417 L586.590,747.518 L586.957,747.885 L586.957,748.986 L587.324,749.353 L587.324,750.453 L587.691,750.820 L587.691,751.921 L588.058,752.288 L588.058,753.388 L588.424,753.755 L588.424,754.856 L588.791,755.223 L588.791,756.324 L589.158,756.691 L589.158,757.791 L589.525,758.158 L589.525,759.259 L589.892,759.626 L589.892,760.727 L590.259,761.094 L590.259,762.194 L590.626,762.561 L590.626,763.662 L590.993,764.029 L590.993,765.129 L591.360,765.496 L591.360,766.597 L591.727,766.964 L591.727,768.065 L592.094,768.432 L592.094,769.532 L592.460,769.899 L592.460,771.000 L592.827,771.367 L592.827,772.468 L593.194,772.835 L593.194,773.935 L593.561,774.302 L593.561,775.403 L593.928,775.770 L593.928,776.871 L594.295,777.237 L594.295,778.338 L594.662,778.705 L594.662,779.806 L595.029,780.173 L595.029,781.273 L595.396,781.640 L595.396,782.741 L595.763,783.108 L595.763,783.842 L596.129,784.209 L596.129,785.309 L596.496,785.676 L596.496,786.777 L596.863,787.144 L596.863,788.245 L597.230,788.612 L597.230,789.712 L597.597,790.079 L597.597,791.180 L597.964,791.547 L597.964,792.647 L598.331,793.014 L598.331,794.115 L598.698,794.482 L598.698,795.583 L599.065,795.950 L599.065,797.050 L599.432,797.417 L599.432,798.518 L599.799,798.885 L599.799,799.986 L615.209,799.986 L615.576,799.619 L615.576,798.518 L615.942,798.151 L615.942,797.050 L616.309,796.683 L616.309,795.583 L616.676,795.216 L616.676,794.115 L617.043,793.748 L617.043,792.647 L617.410,792.281 L617.410,791.547 L617.777,791.180 L617.777,790.079 L618.144,789.712 L618.144,788.612 L618.511,788.245 L618.511,787.144 L618.878,786.777 L618.878,785.676 L619.245,785.309 L619.245,784.209 L619.612,783.842 L619.612,782.741 L619.978,782.374 L619.978,781.273 L620.345,780.906 L620.345,779.806 L620.712,779.439 L620.712,778.338 L621.079,777.971 L621.079,776.871 L621.446,776.504 L621.446,775.403 L621.813,775.036 L621.813,773.935 L622.180,773.568 L622.180,772.468 L622.547,772.101 L622.547,771.000 L622.914,770.633 L622.914,769.532 L623.281,769.165 L623.281,768.065 L623.647,767.698 L623.647,766.597 L624.014,766.230 L624.014,765.129 L624.381,764.763 L624.381,763.662 L624.748,763.295 L624.748,762.194 L625.115,761.827 L625.115,760.727 L625.482,760.360 L625.482,759.259 L625.849,758.892 L625.849,757.791 L626.216,757.424 L626.216,756.324 L626.583,755.957 L626.583,754.856 L626.950,754.489 L626.950,753.388 L627.317,753.022 L627.317,751.921 L627.683,751.554 L627.683,750.453 L628.050,750.086 L628.050,748.986 L628.417,748.619 L628.417,747.518 L628.784,747.151 L628.784,746.050 L629.151,745.683 L629.151,744.583 L629.518,744.216 L629.518,743.115 L629.885,742.748 L629.885,742.014 L630.252,741.647 L630.252,740.547 L630.619,740.180 L630.986,740.547 L630.986,799.986 L645.662,799.986 L645.662,721.468 L621.813,721.468 L621.813,721.835 L621.446,722.201 L621.446,723.302 L621.079,723.669 L621.079,724.770 L620.712,725.137 L620.712,725.871 L620.345,726.237 L620.345,727.338 L619.978,727.705 L619.978,728.806 L619.612,729.173 L619.612,730.273 L619.245,730.640 L619.245,731.741 L618.878,732.108 L618.878,732.842 L618.511,733.209 L618.511,734.309 L618.144,734.676 L618.144,735.777 L617.777,736.144 L617.777,737.245 L617.410,737.612 L617.410,738.712 L617.043,739.079 L617.043,740.180 L616.676,740.547 L616.676,741.281 L616.309,741.647 L616.309,742.748 L615.942,743.115 L615.942,744.216 L615.576,744.583 L615.576,745.683 L615.209,746.050 L615.209,747.151 L614.842,747.518 L614.842,748.252 L614.475,748.619 L614.475,749.719 L614.108,750.086 L614.108,751.187 L613.741,751.554 L613.741,752.655 L613.374,753.022 L613.374,754.122 L613.007,754.489 L613.007,755.223 L612.640,755.590 L612.640,756.691 L612.273,757.058 L612.273,758.158 L611.906,758.525 L611.906,759.626 L611.540,759.993 L611.540,761.094 L611.173,761.460 L611.173,762.194 L610.806,762.561 L610.806,763.662 L610.439,764.029 L610.439,765.129 L610.072,765.496 L610.072,766.597 L609.705,766.964 L609.705,768.065 L609.338,768.432 L609.338,769.165 L608.971,769.532 L608.971,770.633 L608.604,771.000 L608.604,772.101 L608.237,772.468 L608.237,773.568 L607.871,773.935 L607.137,773.201 L607.137,772.101 L606.770,771.734 L606.770,771.000 L606.403,770.633 L606.403,769.532 L606.036,769.165 L606.036,768.065 L605.669,767.698 L605.669,766.597 L605.302,766.230 L605.302,765.496 L604.935,765.129 L604.935,764.029 L604.568,763.662 L604.568,762.561 L604.201,762.194 L604.201,761.094 L603.835,760.727 L603.835,759.993 L603.468,759.626 L603.468,758.525 L603.101,758.158 L603.101,757.058 L602.734,756.691 L602.734,755.590 L602.367,755.223 L602.367,754.489 L602.000,754.122 L602.000,753.022 L601.633,752.655 L601.633,751.554 L601.266,751.187 L601.266,750.086 L600.899,749.719 L600.899,748.619 L600.532,748.252 L600.532,747.518 L600.165,747.151 L600.165,746.050 L599.799,745.683 L599.799,744.583 L599.432,744.216 L599.432,743.115 L599.065,742.748 L599.065,742.014 L598.698,741.647 L598.698,740.547 L598.331,740.180 L598.331,739.079 L597.964,738.712 L597.964,737.612 L597.597,737.245 L597.597,736.511 L597.230,736.144 L597.230,735.043 L596.863,734.676 L596.863,733.576 L596.496,733.209 L596.496,732.108 L596.129,731.741 L596.129,731.007 L595.763,730.640 L595.763,729.540 L595.396,729.173 L595.396,728.072 L595.029,727.705 L595.029,726.604 L594.662,726.237 L594.662,725.137 L594.295,724.770 L594.295,724.036 L593.928,723.669 L593.928,722.568 L593.561,722.201 L593.561,721.468 Z M479.820,721.468 L479.453,721.835 L479.453,722.568 L478.719,723.669 L478.719,724.403 L478.353,724.770 L478.353,725.504 L477.619,726.604 L477.619,727.338 L476.885,728.439 L476.885,729.173 L476.151,730.273 L476.151,731.007 L475.784,731.374 L475.784,732.108 L475.050,733.209 L475.050,733.942 L474.317,735.043 L474.317,735.777 L473.583,736.878 L473.583,737.612 L473.216,737.978 L473.216,738.712 L472.482,739.813 L472.482,740.547 L472.115,740.914 L472.115,741.281 L471.748,741.647 L471.748,742.381 L471.014,743.482 L471.014,744.216 L470.647,744.583 L470.647,745.317 L469.914,746.417 L469.914,747.151 L469.547,747.518 L469.547,747.885 L469.180,748.252 L469.180,748.986 L468.446,750.086 L468.446,750.820 L468.079,751.187 L468.079,751.921 L467.345,753.022 L467.345,753.755 L466.978,754.122 L466.978,754.489 L466.612,754.856 L466.612,755.590 L465.878,756.691 L465.878,757.424 L465.511,757.791 L465.511,758.525 L464.777,759.626 L464.777,760.360 L464.410,760.727 L464.410,761.094 L464.043,761.460 L464.043,762.194 L463.309,763.295 L463.309,764.029 L462.942,764.396 L462.942,765.129 L462.209,766.230 L462.209,766.964 L461.842,767.331 L461.842,767.698 L461.475,768.065 L461.475,768.799 L460.741,769.899 L460.741,770.633 L460.374,771.000 L460.374,771.734 L459.640,772.835 L459.640,773.568 L459.273,773.935 L459.273,774.302 L458.906,774.669 L458.906,775.403 L458.173,776.504 L458.173,777.237 L457.806,777.604 L457.806,778.338 L457.072,779.439 L457.072,780.173 L456.705,780.540 L456.705,780.906 L456.338,781.273 L456.338,782.007 L455.604,783.108 L455.604,783.842 L455.237,784.209 L455.237,784.942 L454.504,786.043 L454.504,786.777 L454.137,787.144 L454.137,787.511 L453.770,787.878 L453.770,788.612 L453.036,789.712 L453.036,790.446 L452.669,790.813 L452.669,791.547 L451.935,792.647 L451.935,793.381 L451.201,794.482 L451.201,795.216 L450.835,795.583 L450.835,795.950 L450.468,796.317 L450.468,797.050 L449.734,798.151 L449.734,798.885 L449.367,799.252 L449.367,799.986 L466.245,799.986 L466.245,799.619 L466.612,799.252 L466.612,798.518 L466.978,798.151 L466.978,797.417 L467.345,797.050 L467.345,796.317 L468.079,795.216 L468.079,794.482 L468.446,794.115 L468.446,793.381 L468.813,793.014 L468.813,792.281 L469.180,791.914 L469.180,791.180 L469.914,790.079 L469.914,789.345 L470.281,788.978 L470.281,788.245 L470.647,787.878 L470.647,787.144 L471.381,786.043 L471.381,785.309 L471.748,784.942 L471.748,784.209 L472.115,783.842 L472.115,783.108 L472.849,782.007 L503.669,782.007 L504.036,782.374 L504.036,782.741 L504.770,783.842 L504.770,784.576 L505.504,785.676 L505.504,786.410 L505.871,786.777 L505.871,787.511 L506.604,788.612 L506.604,789.345 L507.338,790.446 L507.338,791.180 L507.705,791.547 L507.705,792.281 L508.072,792.647 L508.072,793.014 L508.439,793.381 L508.439,794.115 L509.173,795.216 L509.173,795.950 L509.540,796.317 L509.540,797.050 L510.273,798.151 L510.273,798.885 L510.640,799.252 L510.640,799.986 L528.252,799.986 L528.252,799.619 L527.518,798.518 L527.518,797.784 L526.784,796.683 L526.784,795.950 L526.050,794.849 L526.050,794.115 L525.317,793.014 L525.317,792.281 L524.583,791.180 L524.583,790.446 L523.849,789.345 L523.849,788.612 L523.115,787.511 L523.115,786.777 L522.381,785.676 L522.381,784.942 L521.647,783.842 L521.647,783.108 L520.914,782.007 L520.914,781.273 L520.180,780.173 L520.180,779.439 L519.446,778.338 L519.446,777.604 L518.712,776.504 L518.712,775.770 L517.978,774.669 L517.978,773.935 L517.245,772.835 L517.245,772.101 L516.511,771.000 L516.511,770.266 L515.777,769.165 L515.777,768.432 L515.043,767.331 L515.043,766.597 L514.309,765.496 L514.309,764.763 L513.576,763.662 L513.576,762.928 L512.842,761.827 L512.842,761.094 L512.108,759.993 L512.108,759.259 L511.374,758.158 L511.374,757.424 L510.640,756.324 L510.640,755.590 L509.906,754.489 L509.906,753.755 L509.173,752.655 L509.173,751.921 L508.439,750.820 L508.439,750.086 L507.705,748.986 L507.705,748.252 L506.971,747.151 L506.971,746.417 L506.237,745.317 L506.237,744.583 L505.504,743.482 L505.504,742.748 L504.770,741.647 L504.770,740.914 L504.036,739.813 L504.036,739.079 L503.302,737.978 L503.302,737.245 L502.568,736.144 L502.568,735.410 L501.835,734.309 L501.835,733.576 L501.101,732.475 L501.101,731.741 L500.367,730.640 L500.367,729.906 L499.633,728.806 L499.633,728.072 L498.899,726.971 L498.899,726.237 L498.165,725.137 L498.165,724.403 L497.432,723.302 L497.432,722.568 L497.065,722.201 L497.065,721.835 L496.698,721.468 Z M487.892,740.547 L488.259,740.547 L488.626,740.914 L488.626,741.647 L489.360,742.748 L489.360,743.482 L489.727,743.849 L489.727,744.583 L490.460,745.683 L490.460,746.417 L490.827,746.784 L490.827,747.518 L491.194,747.885 L491.194,748.619 L491.928,749.719 L491.928,750.453 L492.295,750.820 L492.295,751.554 L493.029,752.655 L493.029,753.388 L493.396,753.755 L493.396,754.489 L494.129,755.590 L494.129,756.324 L494.496,756.691 L494.496,757.424 L494.863,757.791 L494.863,758.525 L495.597,759.626 L495.597,760.360 L495.964,760.727 L495.964,761.460 L496.698,762.561 L496.698,763.295 L497.065,763.662 L497.065,764.396 L497.432,764.763 L497.432,765.496 L498.165,766.597 L498.165,767.331 L498.532,767.698 L498.532,768.432 L498.899,768.799 L498.532,769.165 L477.986,769.165 L477.619,768.799 L477.619,768.432 L477.986,768.065 L477.986,767.331 L478.353,766.964 L478.353,766.230 L478.719,765.863 L478.719,765.129 L479.453,764.029 L479.453,763.295 L479.820,762.928 L479.820,762.194 L480.187,761.827 L480.187,761.094 L480.921,759.993 L480.921,759.259 L481.288,758.892 L481.288,758.158 L481.655,757.791 L481.655,757.058 L482.388,755.957 L482.388,755.223 L482.755,754.856 L482.755,754.122 L483.122,753.755 L483.122,753.022 L483.856,751.921 L483.856,751.187 L484.223,750.820 L484.223,750.086 L484.590,749.719 L484.590,748.986 L485.324,747.885 L485.324,747.151 L485.691,746.784 L485.691,746.050 L486.058,745.683 L486.058,744.950 L486.791,743.849 L486.791,743.115 L487.158,742.748 L487.158,742.014 L487.525,741.647 L487.525,740.914 Z M350.669,721.468 L350.669,799.986 L410.842,799.986 L410.842,787.144 L367.180,787.144 L366.813,786.777 L366.813,765.496 L367.180,765.129 L406.072,765.129 L406.072,752.288 L367.180,752.288 L366.813,751.921 L366.813,734.676 L367.180,734.309 L409.374,734.309 L409.374,721.468 Z M245.000,721.468 L245.000,734.309 L268.115,734.309 L268.482,734.676 L268.482,799.986 L284.259,799.986 L284.259,734.676 L284.626,734.309 L307.741,734.309 L307.741,721.468 Z M709.137,721.468 L708.770,721.835 L708.036,721.835 L706.935,722.568 L706.201,722.568 L705.835,722.935 L705.468,722.935 L705.101,723.302 L704.000,723.669 L703.266,724.403 L702.899,724.403 L702.165,725.137 L701.799,725.137 L700.331,726.604 L699.964,726.604 L698.496,728.072 L698.496,728.439 L697.396,729.540 L697.396,729.906 L696.662,730.640 L696.662,731.007 L695.928,731.741 L695.928,732.108 L695.194,733.209 L695.194,733.942 L694.827,734.309 L694.827,734.676 L694.460,735.043 L694.460,735.777 L694.094,736.144 L694.094,737.245 L693.727,737.612 L693.727,739.446 L693.360,739.813 L693.360,744.583 L693.727,744.950 L693.727,746.784 L694.094,747.151 L694.094,748.252 L694.460,748.619 L694.460,749.353 L695.194,750.453 L695.194,751.187 L695.561,751.554 L695.928,752.655 L696.662,753.388 L696.662,753.755 L697.396,754.489 L697.396,754.856 L701.799,759.259 L702.165,759.259 L704.000,760.727 L704.367,760.727 L704.734,761.094 L705.101,761.094 L705.468,761.460 L705.835,761.460 L706.201,761.827 L706.568,761.827 L708.403,762.928 L709.137,762.928 L709.504,763.295 L710.237,763.295 L711.338,764.029 L712.072,764.029 L712.439,764.396 L713.173,764.396 L713.540,764.763 L714.640,764.763 L715.007,765.129 L715.741,765.129 L716.108,765.496 L717.209,765.496 L717.576,765.863 L718.676,765.863 L719.043,766.230 L720.144,766.230 L720.511,766.597 L721.612,766.597 L721.978,766.964 L723.079,766.964 L723.446,767.331 L724.180,767.331 L724.547,767.698 L725.647,767.698 L726.014,768.065 L727.115,768.065 L727.482,768.432 L728.216,768.432 L728.583,768.799 L729.683,768.799 L730.050,769.165 L730.784,769.165 L731.151,769.532 L731.885,769.532 L732.252,769.899 L732.619,769.899 L732.986,770.266 L733.353,770.266 L733.719,770.633 L734.820,771.000 L735.554,771.734 L735.921,771.734 L737.388,773.201 L737.388,773.568 L738.122,774.302 L738.122,775.036 L738.489,775.403 L738.489,776.504 L738.856,776.871 L738.856,777.604 L738.489,777.971 L738.489,779.806 L738.122,780.173 L738.122,780.540 L737.755,780.906 L737.388,782.007 L736.655,782.741 L736.655,783.108 L735.187,784.576 L734.820,784.576 L733.719,785.676 L733.353,785.676 L732.986,786.043 L732.619,786.043 L730.784,787.144 L729.683,787.144 L729.317,787.511 L727.849,787.511 L727.482,787.878 L719.410,787.878 L719.043,787.511 L717.576,787.511 L717.209,787.144 L716.475,787.144 L716.108,786.777 L715.374,786.777 L715.007,786.410 L713.906,786.043 L713.173,785.309 L712.806,785.309 L711.705,784.209 L711.338,784.209 L710.237,783.108 L710.237,782.741 L709.137,781.640 L709.137,781.273 L708.403,780.540 L708.403,780.173 L707.302,778.338 L707.302,777.604 L706.935,777.237 L706.935,776.504 L706.568,776.137 L706.568,775.036 L706.201,774.669 L706.201,773.568 L702.165,773.568 L701.799,773.935 L698.496,773.935 L698.129,774.302 L694.460,774.302 L694.094,774.669 L690.791,774.669 L690.424,775.036 L690.791,775.403 L690.791,777.604 L691.158,777.971 L691.158,779.439 L691.525,779.806 L691.525,780.906 L691.892,781.273 L691.892,782.007 L692.259,782.374 L692.259,783.108 L692.626,783.475 L692.626,784.209 L692.993,784.576 L692.993,785.309 L693.360,785.676 L693.360,786.043 L693.727,786.410 L693.727,786.777 L694.094,787.144 L694.460,788.245 L695.194,788.978 L695.194,789.345 L695.928,790.079 L695.928,790.446 L697.029,791.547 L697.029,791.914 L700.331,795.216 L700.698,795.216 L701.799,796.317 L702.165,796.317 L702.899,797.050 L703.266,797.050 L703.633,797.417 L704.000,797.417 L704.367,797.784 L704.734,797.784 L705.101,798.151 L705.468,798.151 L707.302,799.252 L708.036,799.252 L708.403,799.619 L709.137,799.619 L709.504,799.986 L710.604,799.986 L710.971,800.353 L712.072,800.353 L712.439,800.719 L713.906,800.719 L714.273,801.086 L716.475,801.086 L716.842,801.453 L729.683,801.453 L730.050,801.086 L732.619,801.086 L732.986,800.719 L734.453,800.719 L734.820,800.353 L735.921,800.353 L736.288,799.986 L737.388,799.986 L737.755,799.619 L738.489,799.619 L739.590,798.885 L740.324,798.885 L740.691,798.518 L741.058,798.518 L741.424,798.151 L741.791,798.151 L742.158,797.784 L742.525,797.784 L742.892,797.417 L743.993,797.050 L744.727,796.317 L745.094,796.317 L746.194,795.216 L746.561,795.216 L749.129,792.647 L749.129,792.281 L750.230,791.180 L750.230,790.813 L751.698,788.978 L751.698,788.612 L752.799,786.777 L752.799,786.043 L753.165,785.676 L753.165,785.309 L753.532,784.942 L753.532,784.209 L753.899,783.842 L753.899,782.741 L754.266,782.374 L754.266,780.173 L754.633,779.806 L754.633,774.302 L754.266,773.935 L754.266,771.734 L753.899,771.367 L753.899,770.266 L753.532,769.899 L753.532,768.799 L752.799,767.698 L752.799,766.964 L752.432,766.597 L752.065,765.496 L751.331,764.763 L751.331,764.396 L750.597,763.662 L750.597,763.295 L749.129,761.827 L749.129,761.460 L745.827,758.525 L745.460,758.525 L744.727,757.791 L743.626,757.424 L742.892,756.691 L742.525,756.691 L742.158,756.324 L741.424,756.324 L739.590,755.223 L738.856,755.223 L738.489,754.856 L737.755,754.856 L736.655,754.122 L735.921,754.122 L735.554,753.755 L734.820,753.755 L734.453,753.388 L733.353,753.388 L732.986,753.022 L732.252,753.022 L731.885,752.655 L730.784,752.655 L730.417,752.288 L729.683,752.288 L729.317,751.921 L728.216,751.921 L727.849,751.554 L726.748,751.554 L726.381,751.187 L724.914,751.187 L724.547,750.820 L723.446,750.820 L723.079,750.453 L722.345,750.453 L721.978,750.086 L720.878,750.086 L720.511,749.719 L719.410,749.719 L719.043,749.353 L718.309,749.353 L717.942,748.986 L717.209,748.986 L716.842,748.619 L716.108,748.619 L715.007,747.885 L714.273,747.885 L713.906,747.518 L712.806,747.151 L712.072,746.417 L711.705,746.417 L709.504,744.216 L709.504,743.849 L708.770,742.748 L708.770,739.446 L709.137,739.079 L709.504,737.978 L711.338,736.144 L711.705,736.144 L712.439,735.410 L712.806,735.410 L713.906,734.676 L714.640,734.676 L715.007,734.309 L715.741,734.309 L716.108,733.942 L717.209,733.942 L717.576,733.576 L726.381,733.576 L726.748,733.942 L727.849,733.942 L728.216,734.309 L728.950,734.309 L729.317,734.676 L729.683,734.676 L730.050,735.043 L731.151,735.410 L732.252,736.511 L732.619,736.511 L732.986,736.878 L732.986,737.245 L734.453,738.712 L734.453,739.079 L735.554,740.914 L735.554,741.647 L735.921,742.014 L735.921,743.115 L736.288,743.482 L736.288,744.583 L744.360,744.583 L744.727,744.216 L752.065,744.216 L752.432,743.849 L752.432,742.381 L752.065,742.014 L752.065,739.813 L751.698,739.446 L751.698,737.978 L751.331,737.612 L751.331,736.878 L750.964,736.511 L750.964,735.777 L750.597,735.410 L750.597,734.676 L750.230,734.309 L750.230,733.942 L749.863,733.576 L749.863,733.209 L749.496,732.842 L749.496,732.475 L749.129,732.108 L748.763,731.007 L747.662,729.906 L747.662,729.540 L743.626,725.504 L743.259,725.504 L742.158,724.403 L741.058,724.036 L740.324,723.302 L739.590,723.302 L737.755,722.201 L737.022,722.201 L736.655,721.835 L735.921,721.835 L735.554,721.468 L734.820,721.468 L734.453,721.101 L733.353,721.101 L732.986,720.734 L731.518,720.734 L731.151,720.367 L728.950,720.367 L728.583,720.000 L716.108,720.000 L715.741,720.367 L713.540,720.367 L713.173,720.734 L711.705,720.734 L711.338,721.101 L710.604,721.101 L710.237,721.468 Z" fill="#C80913" fill-rule="evenodd"/>
</svg>
